<svg data-v-423bf9ae="" xmlns="http://www.w3.org/2000/svg" viewBox="0 0 372 90" class="iconLeft"><!----><!----><!----><g data-v-423bf9ae="" id="e565a476-cea6-49fc-b3ef-386acc7b30c8" fill="white" transform="matrix(4.3041605949401855,0,0,4.3041605949401855,109.31132507324219,3.507890462875366)"><path d="M3.32 13.93L3.32 13.93Q2.49 13.93 1.78 13.64L1.78 13.64L1.78 13.64Q1.07 13.36 0.62 12.67L0.62 12.67L0.62 12.67Q0.16 11.99 0.16 10.87L0.16 10.87L0.16 10.87Q0.16 10.68 0.17 10.58L0.17 10.58L2.19 10.06L2.19 10.06Q2.17 10.68 2.37 11.10L2.37 11.10L2.37 11.10Q2.56 11.53 2.89 11.73L2.89 11.73L2.89 11.73Q3.21 11.94 3.58 11.94L3.58 11.94L3.58 11.94Q4.09 11.94 4.42 11.60L4.42 11.60L4.42 11.60Q4.74 11.27 4.80 10.66L4.80 10.66L4.80 10.66Q4.81 10.61 4.81 10.51L4.81 10.51L4.81 10.51Q4.81 10.08 4.61 9.77L4.61 9.77L4.61 9.77Q4.42 9.45 4.14 9.24L4.14 9.24L4.14 9.24Q3.87 9.02 3.36 8.70L3.36 8.70L3.36 8.70Q2.69 8.29 2.26 7.92L2.26 7.92L2.26 7.92Q1.84 7.54 1.61 7.06L1.61 7.06L1.61 7.06Q1.37 6.58 1.37 5.95L1.37 5.95L1.37 5.95Q1.37 5.78 1.38 5.68L1.38 5.68L1.38 5.68Q1.42 4.75 1.86 4.07L1.86 4.07L1.86 4.07Q2.29 3.39 3.06 3.03L3.06 3.03L3.06 3.03Q3.83 2.67 4.86 2.67L4.86 2.67L4.86 2.67Q5.62 2.67 6.28 2.91L6.28 2.91L6.28 2.91Q6.93 3.15 7.36 3.76L7.36 3.76L7.36 3.76Q7.79 4.36 7.81 5.39L7.81 5.39L5.96 5.90L5.96 5.90Q5.95 5.43 5.78 5.11L5.78 5.11L5.78 5.11Q5.61 4.79 5.31 4.62L5.31 4.62L5.31 4.62Q5.02 4.46 4.66 4.46L4.66 4.46L4.66 4.46Q4.18 4.46 3.88 4.77L3.88 4.77L3.88 4.77Q3.58 5.09 3.58 5.58L3.58 5.58L3.58 5.58Q3.58 5.90 3.74 6.15L3.74 6.15L3.74 6.15Q3.90 6.39 4.16 6.58L4.16 6.58L4.16 6.58Q4.42 6.76 4.89 7.05L4.89 7.05L5.42 7.38L5.42 7.38Q5.95 7.71 6.31 8.04L6.31 8.04L6.31 8.04Q6.67 8.36 6.91 8.86L6.91 8.86L6.91 8.86Q7.14 9.36 7.14 10.06L7.14 10.06L7.14 10.06Q7.14 10.17 7.13 10.37L7.13 10.37L7.13 10.37Q7.08 11.40 6.60 12.21L6.60 12.21L6.60 12.21Q6.11 13.02 5.26 13.47L5.26 13.47L5.26 13.47Q4.42 13.93 3.32 13.93L3.32 13.93ZM7.29 16.61L9.23 5.63L11.24 5.63L11.09 6.96L11.19 6.96L11.19 6.96Q11.53 6.25 12.12 5.86L12.12 5.86L12.12 5.86Q12.70 5.48 13.40 5.48L13.40 5.48L13.40 5.48Q14.49 5.48 15.08 6.20L15.08 6.20L15.08 6.20Q15.67 6.92 15.67 8.34L15.67 8.34L15.67 8.34Q15.67 9.02 15.52 9.87L15.52 9.87L15.52 9.87Q15.29 11.22 14.82 12.14L14.82 12.14L14.82 12.14Q14.36 13.06 13.74 13.51L13.74 13.51L13.74 13.51Q13.12 13.96 12.41 13.96L12.41 13.96L12.41 13.96Q11.55 13.96 11.04 13.58L11.04 13.58L11.04 13.58Q10.54 13.19 10.40 12.52L10.40 12.52L10.29 12.52L9.57 16.61L7.29 16.61ZM11.44 12.02L11.44 12.02Q12.08 12.02 12.54 11.39L12.54 11.39L12.54 11.39Q13.00 10.76 13.22 9.51L13.22 9.51L13.22 9.51Q13.32 8.92 13.32 8.52L13.32 8.52L13.32 8.52Q13.32 7.95 13.13 7.68L13.13 7.68L13.13 7.68Q12.93 7.41 12.54 7.41L12.54 7.41L12.54 7.41Q11.92 7.41 11.45 8.05L11.45 8.05L11.45 8.05Q10.99 8.68 10.78 9.84L10.78 9.84L10.78 9.84Q10.68 10.40 10.68 10.83L10.68 10.83L10.68 10.83Q10.68 11.42 10.87 11.72L10.87 11.72L10.87 11.72Q11.07 12.02 11.44 12.02L11.44 12.02ZM19.10 13.96L19.10 13.96Q17.71 13.96 16.94 13.19L16.94 13.19L16.94 13.19Q16.18 12.43 16.18 10.90L16.18 10.90L16.18 10.90Q16.18 10.34 16.31 9.57L16.31 9.57L16.31 9.57Q16.68 7.48 17.71 6.48L17.71 6.48L17.71 6.48Q18.74 5.48 20.32 5.48L20.32 5.48L20.32 5.48Q21.71 5.48 22.46 6.23L22.46 6.23L22.46 6.23Q23.21 6.98 23.21 8.50L23.21 8.50L23.21 8.50Q23.21 9.11 23.08 9.90L23.08 9.90L23.08 9.90Q22.72 11.96 21.70 12.96L21.70 12.96L21.70 12.96Q20.68 13.96 19.10 13.96L19.10 13.96ZM19.11 12.22L19.11 12.22Q19.54 12.22 19.87 11.98L19.87 11.98L19.87 11.98Q20.21 11.74 20.47 11.15L20.47 11.15L20.47 11.15Q20.74 10.56 20.92 9.56L20.92 9.56L20.92 9.56Q21.05 8.78 21.05 8.26L21.05 8.26L21.05 8.26Q21.05 7.66 20.86 7.43L20.86 7.43L20.86 7.43Q20.66 7.20 20.26 7.20L20.26 7.20L20.26 7.20Q19.85 7.20 19.53 7.43L19.53 7.43L19.53 7.43Q19.20 7.67 18.94 8.26L18.94 8.26L18.94 8.26Q18.68 8.85 18.50 9.88L18.50 9.88L18.50 9.88Q18.36 10.64 18.36 11.15L18.36 11.15L18.36 11.15Q18.36 11.75 18.55 11.98L18.55 11.98L18.55 11.98Q18.74 12.22 19.11 12.22L19.11 12.22ZM25.96 13.78L25.96 13.78Q25.00 13.78 24.55 13.36L24.55 13.36L24.55 13.36Q24.11 12.95 24.11 12.07L24.11 12.07L24.11 12.07Q24.11 11.65 24.20 11.16L24.20 11.16L24.90 7.14L24.05 7.14L24.32 5.63L25.33 5.63L26.15 3.76L27.82 3.76L27.49 5.63L28.93 5.63L28.66 7.14L27.23 7.14L26.59 10.75L26.59 10.75Q26.50 11.26 26.50 11.46L26.50 11.46L26.50 11.46Q26.50 11.68 26.57 11.79L26.57 11.79L26.57 11.79Q26.65 11.89 26.80 11.93L26.80 11.93L26.80 11.93Q26.95 11.97 27.25 11.97L27.25 11.97L27.80 11.97L27.49 13.78L25.96 13.78ZM28.64 13.78L30.58 2.80L32.92 2.80L30.98 13.78L28.64 13.78ZM34.27 4.60L34.58 2.80L36.90 2.80L36.59 4.60L34.27 4.60ZM32.63 13.78L34.06 5.63L36.40 5.63L34.97 13.78L32.63 13.78ZM36.87 13.78L38.04 7.14L37.04 7.14L37.30 5.63L38.32 5.63L38.43 5.02L38.43 5.02Q38.62 3.96 39.21 3.38L39.21 3.38L39.21 3.38Q39.81 2.80 40.81 2.80L40.81 2.80L42.32 2.80L42.05 4.31L41.49 4.31L41.49 4.31Q41.16 4.31 40.92 4.56L40.92 4.56L40.92 4.56Q40.68 4.81 40.62 5.15L40.62 5.15L40.53 5.63L41.82 5.63L41.56 7.14L40.37 7.14L39.20 13.78L36.87 13.78ZM42.85 4.60L43.17 2.80L45.49 2.80L45.17 4.60L42.85 4.60ZM41.21 13.78L42.65 5.63L44.99 5.63L43.55 13.78L41.21 13.78ZM49.35 5.48L49.35 5.48Q50.78 5.48 51.43 6.22L51.43 6.22L51.43 6.22Q52.08 6.97 52.08 8.25L52.08 8.25L52.08 8.25Q52.08 8.79 51.98 9.37L51.98 9.37L51.98 9.37Q51.91 9.81 51.75 10.29L51.75 10.29L47.56 10.29L47.56 10.29Q47.49 10.66 47.49 10.93L47.49 10.93L47.49 10.93Q47.49 11.50 47.76 11.81L47.76 11.81L47.76 11.81Q48.02 12.13 48.49 12.13L48.49 12.13L48.49 12.13Q48.94 12.13 49.30 11.90L49.30 11.90L49.30 11.90Q49.67 11.68 49.93 11.25L49.93 11.25L51.51 11.92L51.51 11.92Q50.93 13.06 50.14 13.51L50.14 13.51L50.14 13.51Q49.36 13.95 48.34 13.95L48.34 13.95L48.34 13.95Q47.43 13.95 46.75 13.58L46.75 13.58L46.75 13.58Q46.07 13.21 45.69 12.48L45.69 12.48L45.69 12.48Q45.32 11.76 45.32 10.73L45.32 10.73L45.32 10.73Q45.32 10.19 45.43 9.59L45.43 9.59L45.43 9.59Q45.78 7.65 46.75 6.56L46.75 6.56L46.75 6.56Q47.73 5.48 49.35 5.48L49.35 5.48ZM49.42 7.21L49.42 7.21Q48.77 7.21 48.40 7.66L48.40 7.66L48.40 7.66Q48.02 8.11 47.86 8.82L47.86 8.82L50.15 8.82L50.15 8.82Q50.22 8.33 50.22 8.09L50.22 8.09L50.22 8.09Q50.22 7.66 50.04 7.43L50.04 7.43L50.04 7.43Q49.86 7.21 49.42 7.21L49.42 7.21ZM58.61 2.80L60.95 2.80L59.01 13.78L56.90 13.78L57.02 12.61L56.94 12.61L56.94 12.61Q56.64 13.25 56.09 13.60L56.09 13.60L56.09 13.60Q55.54 13.96 54.91 13.96L54.91 13.96L54.91 13.96Q53.81 13.96 53.19 13.21L53.19 13.21L53.19 13.21Q52.57 12.47 52.57 11.02L52.57 11.02L52.57 11.02Q52.57 10.35 52.71 9.54L52.71 9.54L52.71 9.54Q52.96 8.16 53.45 7.25L53.45 7.25L53.45 7.25Q53.95 6.34 54.61 5.91L54.61 5.91L54.61 5.91Q55.28 5.48 56.06 5.48L56.06 5.48L56.06 5.48Q56.77 5.48 57.23 5.88L57.23 5.88L57.23 5.88Q57.68 6.29 57.79 6.93L57.79 6.93L57.91 6.93L58.61 2.80ZM55.71 12.01L55.71 12.01Q56.33 12.01 56.80 11.36L56.80 11.36L56.80 11.36Q57.26 10.71 57.47 9.52L57.47 9.52L57.47 9.52Q57.57 8.98 57.57 8.60L57.57 8.60L57.57 8.60Q57.57 8.03 57.37 7.73L57.37 7.73L57.37 7.73Q57.18 7.43 56.79 7.43L56.79 7.43L56.79 7.43Q56.40 7.43 56.04 7.70L56.04 7.70L56.04 7.70Q55.69 7.97 55.42 8.51L55.42 8.51L55.42 8.51Q55.15 9.06 55.01 9.85L55.01 9.85L55.01 9.85Q54.91 10.37 54.91 10.81L54.91 10.81L54.91 10.81Q54.91 11.42 55.12 11.72L55.12 11.72L55.12 11.72Q55.32 12.01 55.71 12.01L55.71 12.01Z"></path></g><!----><g data-v-423bf9ae="" id="a5104cd0-7b28-494d-9928-0bd8f54692cc" transform="matrix(2.8125,0,0,2.8125,0,0)" stroke="none" fill="white"><path d="M16 32c8.837 0 16-7.163 16-16S24.837 0 16 0 0 7.163 0 16s7.163 16 16 16zM14.817 6.421h2v8.886h8.887v2H14.817V6.421zm-5.959.437h2v14.283h14.283v2H8.858V6.858z"></path></g><!----></svg>